<svg xmlns="http://www.w3.org/2000/svg" viewBox="0 0 615.84 450.44"><defs><style>.cls-1{fill:#e00;}.cls-2{fill:#595959;}.cls-3{fill:#fff;}</style></defs><title>Logo-Red_Hat-Ready-Business_Partner-Solution_Provider-A-Reverse-RGB</title><g id="One_Line_Specialization" data-name="One Line Specialization"><rect class="cls-1" x="2" y="201.8" width="611.84" height="92.1"/><rect class="cls-2" x="2" y="300.25" width="611.84" height="148.19"/><path class="cls-3" d="M581.24,94.3c0,11.89,7.15,17.67,20.19,17.67a52.67,52.67,0,0,0,11.89-1.68V96.51a24.84,24.84,0,0,1-7.68,1.16c-5.37,0-7.36-1.68-7.36-6.73V69.8h15.56V55.6H598.28v-18l-17,3.68V55.6H570V69.8h11.25Zm-53,.32c0-3.68,3.69-5.47,9.26-5.47a43.12,43.12,0,0,1,10.1,1.26v7.15A21.51,21.51,0,0,1,537,100.19c-5.47,0-8.73-2.1-8.73-5.57m5.2,17.56c6,0,10.84-1.26,15.36-4.31v3.36h16.82V75.58c0-13.56-9.15-21-24.39-21-8.52,0-16.94,2-26,6.1l6.1,12.51c6.52-2.73,12-4.41,16.83-4.41,7,0,10.62,2.73,10.62,8.3v2.74a49.53,49.53,0,0,0-12.62-1.58c-14.31,0-22.93,6-22.93,16.72,0,9.78,7.78,17.25,20.19,17.25m-92.44-1h18.09V82.42h30.29v28.81h18.09V37.62H489.43V65.91H459.14V37.62H441.05ZM372.12,83.36c0-8,6.31-14.09,14.62-14.09a17.26,17.26,0,0,1,11.78,4.31V93a16.36,16.36,0,0,1-11.78,4.42c-8.2,0-14.62-6.1-14.62-14.1m26.61,27.87h16.83V33.94l-17,3.68V58.55a28.3,28.3,0,0,0-14.2-3.69c-16.2,0-28.92,12.52-28.92,28.5A28.25,28.25,0,0,0,383.79,112a25.07,25.07,0,0,0,14.94-4.84ZM321.54,68.54c5.36,0,9.88,3.47,11.67,8.83H310c1.68-5.57,5.89-8.83,11.57-8.83M292.83,83.47c0,16.2,13.25,28.82,30.28,28.82,9.36,0,16.2-2.53,23.25-8.42l-11.26-10c-2.63,2.74-6.52,4.21-11.14,4.21a14.39,14.39,0,0,1-13.68-8.84h39.65v-4.2c0-17.67-11.88-30.4-28.08-30.4a28.57,28.57,0,0,0-29,28.82M263.48,53.08c6,0,9.36,3.78,9.36,8.3s-3.36,8.31-9.36,8.31H245.61V53.08Zm-36,58.15h18.09V84.42h13.77l13.89,26.81h20.19l-16.2-29.44a22.28,22.28,0,0,0,13.88-20.72c0-13.25-10.41-23.45-26-23.45H227.52Z"/><path class="cls-1" d="M129,85c12.51,0,30.61-2.59,30.61-17.46a14,14,0,0,0-.31-3.42l-7.45-32.36c-1.72-7.12-3.23-10.35-15.73-16.6C126.39,10.19,105.26,2,99,2c-5.82,0-7.55,7.54-14.45,7.54-6.68,0-11.64-5.6-17.89-5.6-6,0-9.91,4.09-12.93,12.5,0,0-8.41,23.71-9.49,27.16A6.43,6.43,0,0,0,44,45.54C44,54.76,80.33,85,129,85m32.55-11.42c1.73,8.19,1.73,9.05,1.73,10.13,0,14-15.74,21.77-36.43,21.77C80,105.47,39.08,78.09,39.08,60a18.45,18.45,0,0,1,1.51-7.33C23.77,53.52,2,56.54,2,75.72,2,107.19,76.59,146,135.65,146c45.28,0,56.7-20.48,56.7-36.65,0-12.72-11-27.16-30.83-35.78"/><path d="M161.52,73.57c1.73,8.19,1.73,9.05,1.73,10.13,0,14-15.74,21.77-36.43,21.77C80,105.47,39.08,78.09,39.08,60a18.45,18.45,0,0,1,1.51-7.33l3.66-9.06A6.43,6.43,0,0,0,44,45.54C44,54.76,80.33,85,129,85c12.51,0,30.61-2.59,30.61-17.46a14,14,0,0,0-.31-3.42Z"/><path class="cls-3" d="M35.26,229.79H53c7.35,0,12.53,4.61,12.53,11.24a10.77,10.77,0,0,1-7.09,10.09l8,14.9H58l-7.09-13.87H42.76V266h-7.5Zm7.5,6.47V246h9.53c3.36,0,5.59-2,5.59-4.86s-2.23-4.87-5.59-4.87Z"/><path class="cls-3" d="M81.11,266.54c-8.17,0-14.49-6.11-14.49-14a13.77,13.77,0,0,1,13.87-14c7.66,0,13.36,6.21,13.36,14.49V255H73.76a7.78,7.78,0,0,0,7.66,5.64,8.54,8.54,0,0,0,6-2.17L92,262.66A16.16,16.16,0,0,1,81.11,266.54Zm-7.4-16.67h13.2a7,7,0,0,0-6.57-5.43A6.78,6.78,0,0,0,73.71,249.87Z"/><path class="cls-3" d="M96.28,258.21c0-5.13,4.14-8.18,11.07-8.18a21.54,21.54,0,0,1,6.57,1v-1.92c0-3.11-1.91-4.71-5.69-4.71-2.28,0-4.81.73-8.23,2.23l-2.59-5.23a28.11,28.11,0,0,1,12-2.9c7.3,0,11.49,3.62,11.49,10V266h-7v-1.86a12.76,12.76,0,0,1-7.81,2.33C100.31,266.49,96.28,263.12,96.28,258.21ZM108,261.42a10.18,10.18,0,0,0,6-1.71v-4a15.67,15.67,0,0,0-5.69-1c-3.26,0-5.17,1.29-5.17,3.36S105,261.42,108,261.42Z"/><path class="cls-3" d="M145.91,263.8a12.24,12.24,0,0,1-7.66,2.59,13.85,13.85,0,0,1,.21-27.7,13.37,13.37,0,0,1,7.34,2.13v-11l7.1-1.55V266h-7Zm-6.52-3.47a8.61,8.61,0,0,0,6.41-2.59v-10.5a8.87,8.87,0,0,0-6.41-2.54,7.82,7.82,0,1,0,0,15.63Z"/><path class="cls-3" d="M165.68,266.28l-10.51-27.22H163l6.68,18.37,7.66-18.37H185l-12.42,29.09c-2.8,6.52-6.06,9-12,9a12.72,12.72,0,0,1-3.15-.31v-6.11a10.74,10.74,0,0,0,2.48.21,5.42,5.42,0,0,0,5.33-3.67Z"/><path class="cls-3" d="M52.18,328.63c7.3,0,12.27,4,12.27,9.94A8.94,8.94,0,0,1,60,346.18c3.46,1.65,5.69,4.6,5.69,8.18,0,6.31-5.07,10.5-12.68,10.5H35.15V328.63Zm-9.52,6.21v8.59h9.05c3.21,0,5.28-1.65,5.28-4.29s-2.07-4.3-5.28-4.3Zm15.47,19.1c0-2.79-2.22-4.66-5.69-4.66H42.66v9.37h9.78C55.91,358.65,58.13,356.84,58.13,353.94Z"/><path class="cls-3" d="M76.3,353.58a5.29,5.29,0,0,0,5.59,5.69,6.5,6.5,0,0,0,5.59-2.69V337.9h7.09v27H87.48v-2.17a11.48,11.48,0,0,1-7.61,2.69c-6.26,0-10.66-4.45-10.66-10.77V337.9H76.3Z"/><path class="cls-3" d="M100.83,356.94c3.15,2.07,5.9,3.06,8.74,3.06,3.16,0,5.23-1.14,5.23-2.85,0-1.4-1-2.17-3.36-2.54l-5.18-.77c-5.33-.83-8.18-3.47-8.18-7.82,0-5.23,4.35-8.54,11.23-8.54a19.85,19.85,0,0,1,11.08,3.37L117,345.4a15.92,15.92,0,0,0-8.33-2.59c-2.59,0-4.24,1-4.24,2.64s1,2.18,3.67,2.54l5.18.78c5.28.77,8.23,3.51,8.23,7.71,0,5.07-5,8.9-11.8,8.9-4.92,0-9.32-1.29-12.37-3.73Z"/><path class="cls-3" d="M124,330.65a4,4,0,1,1,4,4A4,4,0,0,1,124,330.65Zm7.61,34.21h-7.09v-27h7.09Z"/><path class="cls-3" d="M136.59,337.9h7.09V340a11.55,11.55,0,0,1,7.55-2.64c6.27,0,10.67,4.4,10.67,10.71v16.77h-7.1V349.13a5.25,5.25,0,0,0-5.59-5.64,6.44,6.44,0,0,0-5.53,2.69v18.68h-7.09Z"/><path class="cls-3" d="M180,365.38c-8.18,0-14.49-6.11-14.49-14a13.76,13.76,0,0,1,13.87-14c7.66,0,13.35,6.21,13.35,14.49v1.87H172.66a7.77,7.77,0,0,0,7.66,5.64,8.48,8.48,0,0,0,6-2.18l4.66,4.25A16.17,16.17,0,0,1,180,365.38Zm-7.4-16.67H185.8a6.94,6.94,0,0,0-6.57-5.43C176,343.28,173.49,345.4,172.61,348.71Z"/><path class="cls-3" d="M198.07,356.94c3.15,2.07,5.9,3.06,8.74,3.06,3.16,0,5.23-1.14,5.23-2.85,0-1.4-1-2.17-3.36-2.54l-5.18-.77c-5.33-.83-8.18-3.47-8.18-7.82,0-5.23,4.35-8.54,11.24-8.54a19.84,19.84,0,0,1,11.07,3.37l-3.41,4.55a15.93,15.93,0,0,0-8.34-2.59c-2.58,0-4.24,1-4.24,2.64s1,2.18,3.67,2.54l5.18.78c5.28.77,8.23,3.51,8.23,7.71,0,5.07-5,8.9-11.8,8.9-4.92,0-9.32-1.29-12.37-3.73Z"/><path class="cls-3" d="M223.06,356.94c3.16,2.07,5.9,3.06,8.75,3.06,3.16,0,5.23-1.14,5.23-2.85,0-1.4-1-2.17-3.37-2.54l-5.17-.77c-5.33-.83-8.18-3.47-8.18-7.82,0-5.23,4.35-8.54,11.23-8.54a19.87,19.87,0,0,1,11.08,3.37l-3.42,4.55a15.92,15.92,0,0,0-8.33-2.59c-2.59,0-4.24,1-4.24,2.64s1,2.18,3.67,2.54l5.18.78c5.28.77,8.23,3.51,8.23,7.71,0,5.07-5,8.9-11.8,8.9-4.92,0-9.32-1.29-12.37-3.73Z"/><path class="cls-3" d="M257.06,328.63h18.17c7.14,0,12.16,4.71,12.16,11.39,0,6.47-5.12,11.18-12.16,11.18H264.57v13.66h-7.51Zm7.51,6.47V345h9.83c3.26,0,5.39-2,5.39-4.92s-2.13-5-5.39-5Z"/><path class="cls-3" d="M288.89,357.05c0-5.13,4.14-8.18,11.08-8.18a21.84,21.84,0,0,1,6.57,1V348c0-3.11-1.91-4.71-5.69-4.71-2.28,0-4.81.72-8.23,2.22L290,340.28a28.11,28.11,0,0,1,12-2.9c7.3,0,11.49,3.62,11.49,10v17.49h-7V363a12.83,12.83,0,0,1-7.81,2.33C292.93,365.33,288.89,362,288.89,357.05Zm11.7,3.21a10.18,10.18,0,0,0,6-1.71v-4a15.71,15.71,0,0,0-5.69-1c-3.26,0-5.18,1.29-5.18,3.36S297.59,360.26,300.59,360.26Z"/><path class="cls-3" d="M318.39,337.9h7.09v3a8.58,8.58,0,0,1,7.2-3.57,6.06,6.06,0,0,1,2.95.62v6.21a9,9,0,0,0-3.63-.73,7.14,7.14,0,0,0-6.52,4v17.44h-7.09Z"/><path class="cls-3" d="M343,343.85h-5.54v-6H343V331l7.09-1.6v8.49h7.66v6h-7.66V355.8c0,2.54,1,3.47,3.72,3.47a10.81,10.81,0,0,0,3.78-.62v5.8a22.24,22.24,0,0,1-5.48.83c-6,0-9.11-2.75-9.11-8Z"/><path class="cls-3" d="M360.78,337.9h7.09V340a11.55,11.55,0,0,1,7.55-2.64c6.27,0,10.67,4.4,10.67,10.71v16.77H379V349.13a5.26,5.26,0,0,0-5.59-5.64,6.46,6.46,0,0,0-5.54,2.69v18.68h-7.09Z"/><path class="cls-3" d="M404.2,365.38c-8.18,0-14.49-6.11-14.49-14a13.76,13.76,0,0,1,13.87-14c7.66,0,13.35,6.21,13.35,14.49v1.87H396.85a7.77,7.77,0,0,0,7.66,5.64,8.48,8.48,0,0,0,5.95-2.18l4.66,4.25A16.17,16.17,0,0,1,404.2,365.38Zm-7.4-16.67H410a7,7,0,0,0-6.58-5.43C400.16,343.28,397.68,345.4,396.8,348.71Z"/><path class="cls-3" d="M420.76,337.9h7.09v3a8.57,8.57,0,0,1,7.19-3.57,6,6,0,0,1,2.95.62v6.21a9,9,0,0,0-3.62-.73,7.13,7.13,0,0,0-6.52,4v17.44h-7.09Z"/><path class="cls-3" d="M34.7,412.6c3.17,3.39,6.78,5.1,10.78,5.1,4.84,0,8.27-2.5,8.27-6.07,0-3.17-2-4.71-7.08-5.54l-4.44-.71c-5.95-1-8.67-3.43-8.67-7.79,0-5.1,4.35-8.58,10.82-8.58a20.33,20.33,0,0,1,12.15,4.1l-1.94,2.64a17,17,0,0,0-10.34-3.83c-4.4,0-7.39,2.2-7.39,5.41,0,2.86,1.76,4.27,6.25,5l4.4.71c6.73,1.1,9.63,3.65,9.63,8.45,0,5.41-4.84,9.19-11.79,9.19a17.34,17.34,0,0,1-12.89-5.72Z"/><path class="cls-3" d="M71.4,397.73a11.46,11.46,0,1,1-11.27,11.44A11.23,11.23,0,0,1,71.4,397.73Zm8,11.44c0-4.8-3.52-8.54-8-8.54a8.23,8.23,0,0,0-8.06,8.54c0,4.79,3.52,8.58,8.06,8.58S79.41,414,79.41,409.17Z"/><path class="cls-3" d="M90,420.21H86.71v-30.8l3.25-.75Z"/><path class="cls-3" d="M98.19,411.46c0,3.91,2.38,6.33,6.16,6.33a6.8,6.8,0,0,0,6.07-3.43V398.17h3.26v22h-3.26v-2.55a8.71,8.71,0,0,1-6.9,3A8.12,8.12,0,0,1,95,412.12V398.17h3.21Z"/><path class="cls-3" d="M121.51,400.94h-4.75v-2.77h4.75v-5.59l3.21-.84v6.43h6.65v2.77h-6.65v13.51c0,2.37,1,3.3,3.39,3.3a7.86,7.86,0,0,0,3.21-.57V420a12.63,12.63,0,0,1-3.87.57c-3.83,0-5.94-1.85-5.94-5.33Z"/><path class="cls-3" d="M133.83,391.74a2.21,2.21,0,0,1,2.2-2.2,2.18,2.18,0,0,1,2.2,2.2,2.21,2.21,0,0,1-2.2,2.2A2.23,2.23,0,0,1,133.83,391.74Zm3.83,28.47H134.4v-22h3.26Z"/><path class="cls-3" d="M153,397.73a11.46,11.46,0,1,1-11.26,11.44A11.24,11.24,0,0,1,153,397.73Zm8,11.44c0-4.8-3.52-8.54-8-8.54a8.23,8.23,0,0,0-8,8.54c0,4.79,3.52,8.58,8,8.58S161,414,161,409.17Z"/><path class="cls-3" d="M168.32,398.17h3.26v2.59a8.73,8.73,0,0,1,6.95-3,8.12,8.12,0,0,1,8.5,8.53v13.95h-3.21V406.92c0-3.91-2.38-6.33-6.17-6.33a6.84,6.84,0,0,0-6.07,3.39v16.23h-3.26Z"/><path class="cls-3" d="M201.68,389.41h13.38c6,0,9.94,3.52,9.94,8.89s-4,8.93-9.94,8.93h-10v13h-3.39Zm3.39,3v11.83h9.72c4.18,0,6.82-2.29,6.82-5.94s-2.64-5.89-6.82-5.89Z"/><path class="cls-3" d="M229.09,398.17h3.26v3.12a6.86,6.86,0,0,1,6.16-3.61,6,6,0,0,1,2.06.31v3a7.24,7.24,0,0,0-2.28-.39c-2.73,0-4.8,1.58-5.94,4.53v15.09h-3.26Z"/><path class="cls-3" d="M252.54,397.73a11.46,11.46,0,1,1-11.26,11.44A11.23,11.23,0,0,1,252.54,397.73Zm8,11.44c0-4.8-3.52-8.54-8-8.54a8.23,8.23,0,0,0-8,8.54c0,4.79,3.52,8.58,8,8.58S260.55,414,260.55,409.17Z"/><path class="cls-3" d="M264.42,398.17H268L275.55,416l7.53-17.82h3.48l-9.51,22H274Z"/><path class="cls-3" d="M288.53,391.74a2.21,2.21,0,0,1,2.2-2.2,2.18,2.18,0,0,1,2.2,2.2,2.21,2.21,0,0,1-2.2,2.2A2.23,2.23,0,0,1,288.53,391.74Zm3.83,28.47H289.1v-22h3.26Z"/><path class="cls-3" d="M314.67,417.88a10.25,10.25,0,0,1-7.13,2.69,11.38,11.38,0,1,1,7.09-20.25V389.41l3.25-.75v31.55h-3.21Zm-6.82-.18a8.54,8.54,0,0,0,6.78-3.08V403.71a8.73,8.73,0,0,0-6.78-3,8.16,8.16,0,0,0-8.19,8.45A8.27,8.27,0,0,0,307.85,417.7Z"/><path class="cls-3" d="M333.32,420.61A11.23,11.23,0,0,1,322,409.17a11,11,0,0,1,10.87-11.36c5.85,0,10.43,5,10.43,11.36v1H325.18a8.29,8.29,0,0,0,8.28,7.57,9.66,9.66,0,0,0,6.07-2l2,2.15A13,13,0,0,1,333.32,420.61Zm-8.05-13H340c-.57-3.91-3.61-6.91-7.26-6.91C328.92,400.67,325.89,403.53,325.27,407.58Z"/><path class="cls-3" d="M347.36,398.17h3.26v3.12a6.87,6.87,0,0,1,6.16-3.61,6,6,0,0,1,2.06.31v3a7.24,7.24,0,0,0-2.28-.39c-2.73,0-4.8,1.58-5.94,4.53v15.09h-3.26Z"/></g></svg>