<?xml version="1.0" encoding="UTF-8" standalone="no"?>
<svg
   version="1.1"
   viewBox="0 0 257.1076 139.33594"
   fill="none"
   stroke="none"
   stroke-linecap="square"
   stroke-miterlimit="10"
   id="svg39"
   sodipodi:docname="venn.svg"
   width="257.1076"
   height="139.33594"
   inkscape:version="1.1 (c68e22c387, 2021-05-23)"
   xmlns:inkscape="http://www.inkscape.org/namespaces/inkscape"
   xmlns:sodipodi="http://sodipodi.sourceforge.net/DTD/sodipodi-0.dtd"
   xmlns="http://www.w3.org/2000/svg"
   xmlns:svg="http://www.w3.org/2000/svg">
  <defs
     id="defs43" />
  <sodipodi:namedview
     id="namedview41"
     pagecolor="#ffffff"
     bordercolor="#666666"
     borderopacity="1.0"
     inkscape:pageshadow="2"
     inkscape:pageopacity="0.0"
     inkscape:pagecheckerboard="0"
     showgrid="false"
     fit-margin-top="0"
     fit-margin-left="0"
     fit-margin-right="0"
     fit-margin-bottom="0"
     inkscape:zoom="1.296875"
     inkscape:cx="231.71084"
     inkscape:cy="267.56627"
     inkscape:window-width="2560"
     inkscape:window-height="1371"
     inkscape:window-x="0"
     inkscape:window-y="0"
     inkscape:window-maximized="1"
     inkscape:current-layer="g37" />
  <clipPath
     id="p.0">
    <path
       d="M 0,0 H 960 V 540 H 0 Z"
       clip-rule="nonzero"
       id="path2" />
  </clipPath>
  <g
     clip-path="url(#p.0)"
     id="g37"
     transform="translate(-4.8816964,-2.518514)">
    <path
       fill="#000000"
       fill-opacity="0"
       d="m 56.928946,76.815094 v 0 c 0,-15.559647 12.613586,-28.173233 28.173248,-28.173233 v 0 c 7.471985,0 14.63797,2.968246 19.921476,8.251755 5.28351,5.283493 8.25174,12.449463 8.25174,19.921478 v 0 c 0,15.559647 -12.61358,28.173236 -28.173216,28.173236 v 0 c -15.559662,0 -28.173248,-12.613589 -28.173248,-28.173236 z"
       fill-rule="evenodd"
       id="path7"
       style="fill:#ffffff" />
    <path
       stroke="#000000"
       stroke-width="1"
       stroke-linejoin="round"
       stroke-linecap="butt"
       d="m 56.928946,76.815094 v 0 c 0,-15.559647 12.613586,-28.173233 28.173248,-28.173233 v 0 c 7.471985,0 14.63797,2.968246 19.921476,8.251755 5.28351,5.283493 8.25174,12.449463 8.25174,19.921478 v 0 c 0,15.559647 -12.61358,28.173236 -28.173216,28.173236 v 0 c -15.559662,0 -28.173248,-12.613589 -28.173248,-28.173236 z"
       fill-rule="evenodd"
       id="path9"
       style="fill:none;stroke:#ffffff;stroke-opacity:1" />
    <path
       fill="#000000"
       fill-opacity="0"
       d="m 87.729476,55.095934 v 0 c 0,-15.559647 12.613584,-28.173233 28.173214,-28.173233 v 0 c 7.47202,0 14.63797,2.968246 19.92148,8.251755 5.28354,5.283508 8.25174,12.449478 8.25174,19.921478 v 0 c 0,15.559647 -12.61355,28.173218 -28.17322,28.173218 v 0 c -15.55963,0 -28.173214,-12.613571 -28.173214,-28.173218 z"
       fill-rule="evenodd"
       id="path11"
       style="fill:#ffffff" />
    <path
       stroke="#000000"
       stroke-width="1"
       stroke-linejoin="round"
       stroke-linecap="butt"
       d="m 87.729476,55.095934 v 0 c 0,-15.559647 12.613584,-28.173233 28.173214,-28.173233 v 0 c 7.47202,0 14.63797,2.968246 19.92148,8.251755 5.28354,5.283508 8.25174,12.449478 8.25174,19.921478 v 0 c 0,15.559647 -12.61355,28.173218 -28.17322,28.173218 v 0 c -15.55963,0 -28.173214,-12.613571 -28.173214,-28.173218 z"
       fill-rule="evenodd"
       id="path13"
       style="fill:none;stroke:#ffffff;stroke-opacity:1" />
    <path
       fill="#000000"
       fill-opacity="0"
       d="m 92.270156,91.626114 v 0 c 0,-15.559647 12.613584,-28.173233 28.173214,-28.173233 v 0 c 7.47202,0 14.638,2.968246 19.92148,8.251755 5.28351,5.283508 8.25177,12.449463 8.25177,19.921478 v 0 c 0,15.559626 -12.61358,28.173216 -28.17325,28.173216 v 0 c -15.55963,0 -28.173214,-12.61358 -28.173214,-28.173216 z"
       fill-rule="evenodd"
       id="path15"
       style="fill:#ffffff" />
    <path
       stroke="#000000"
       stroke-width="1"
       stroke-linejoin="round"
       stroke-linecap="butt"
       d="m 92.270156,91.626114 v 0 c 0,-15.559647 12.613584,-28.173233 28.173214,-28.173233 v 0 c 7.47202,0 14.638,2.968246 19.92148,8.251755 5.28351,5.283508 8.25177,12.449463 8.25177,19.921478 v 0 c 0,15.559626 -12.61358,28.173216 -28.17325,28.173216 v 0 c -15.55963,0 -28.173214,-12.61358 -28.173214,-28.173216 z"
       fill-rule="evenodd"
       id="path17"
       style="fill:none;stroke:#ffffff;stroke-opacity:1" />
    <path
       fill="#000000"
       fill-opacity="0"
       d="M 4.8816964,31.400394 H 71.716352 V 83.116931 H 4.8816964 Z"
       fill-rule="evenodd"
       id="path19"
       style="fill:#ffffff" />
    <path
       fill="#000000"
       d="m 21.537946,43.653524 v 1.078125 h -3.078125 v 8.46875 h -1.296875 v -8.46875 h -3.09375 v -1.078125 z m 2.510468,2.6875 q 0.734375,0 1.328125,0.25 0.609375,0.25 1.015625,0.703125 0.421875,0.453125 0.640625,1.09375 0.234375,0.640625 0.234375,1.4375 0,0.796875 -0.234375,1.4375 -0.21875,0.640625 -0.640625,1.09375 -0.40625,0.453125 -1.015625,0.703125 -0.59375,0.234375 -1.328125,0.234375 -0.734375,0 -1.34375,-0.234375 -0.59375,-0.25 -1.015625,-0.703125 -0.40625,-0.453125 -0.640625,-1.09375 -0.21875,-0.640625 -0.21875,-1.4375 0,-0.796875 0.21875,-1.4375 0.234375,-0.640625 0.640625,-1.09375 0.421875,-0.453125 1.015625,-0.703125 0.609375,-0.25 1.34375,-0.25 z m 0,6.03125 q 1,0 1.484375,-0.671875 0.5,-0.671875 0.5,-1.875 0,-1.203125 -0.5,-1.875 -0.484375,-0.671875 -1.484375,-0.671875 -0.5,0 -0.875,0.171875 -0.375,0.171875 -0.625,0.5 -0.25,0.328125 -0.375,0.8125 -0.125,0.46875 -0.125,1.0625 0,0.609375 0.125,1.078125 0.125,0.46875 0.375,0.796875 0.25,0.328125 0.625,0.5 0.375,0.171875 0.875,0.171875 z m 7.4104,-6.03125 q 0.734375,0 1.328125,0.25 0.609375,0.25 1.015625,0.703125 0.421875,0.453125 0.640625,1.09375 0.234375,0.640625 0.234375,1.4375 0,0.796875 -0.234375,1.4375 -0.21875,0.640625 -0.640625,1.09375 -0.40625,0.453125 -1.015625,0.703125 -0.59375,0.234375 -1.328125,0.234375 -0.734375,0 -1.34375,-0.234375 -0.59375,-0.25 -1.015625,-0.703125 -0.40625,-0.453125 -0.640625,-1.09375 -0.21875,-0.640625 -0.21875,-1.4375 0,-0.796875 0.21875,-1.4375 0.234375,-0.640625 0.640625,-1.09375 0.421875,-0.453125 1.015625,-0.703125 0.609375,-0.25 1.34375,-0.25 z m 0,6.03125 q 1,0 1.484375,-0.671875 0.5,-0.671875 0.5,-1.875 0,-1.203125 -0.5,-1.875 -0.484375,-0.671875 -1.484375,-0.671875 -0.5,0 -0.875,0.171875 -0.375,0.171875 -0.625,0.5 -0.25,0.328125 -0.375,0.8125 -0.125,0.46875 -0.125,1.0625 0,0.609375 0.125,1.078125 0.125,0.46875 0.375,0.796875 0.25,0.328125 0.625,0.5 0.375,0.171875 0.875,0.171875 z m 6.004181,-8.984375 v 9.8125 h -1.1875 v -9.8125 z m 3.411988,3.0625 v 6.75 h -1.1875 v -6.75 z m 0.265625,-2.125 q 0,0.171875 -0.07813,0.328125 -0.0625,0.15625 -0.1875,0.28125 -0.109375,0.109375 -0.265625,0.171875 -0.15625,0.0625 -0.328125,0.0625 -0.171875,0 -0.328125,-0.0625 -0.140625,-0.0625 -0.265625,-0.171875 -0.109375,-0.125 -0.1875,-0.28125 -0.0625,-0.15625 -0.0625,-0.328125 0,-0.171875 0.0625,-0.328125 0.07813,-0.15625 0.1875,-0.265625 0.125,-0.125 0.265625,-0.1875 0.15625,-0.0625 0.328125,-0.0625 0.171875,0 0.328125,0.0625 0.15625,0.0625 0.265625,0.1875 0.125,0.109375 0.1875,0.265625 0.07813,0.15625 0.07813,0.328125 z m 1.818237,8.875 v -6.75 h 0.703125 q 0.265625,0 0.328125,0.25 l 0.09375,0.734375 q 0.4375,-0.484375 0.984375,-0.78125 0.546875,-0.3125 1.25,-0.3125 0.5625,0 0.984375,0.1875 0.421875,0.1875 0.703125,0.53125 0.28125,0.328125 0.421875,0.796875 0.15625,0.46875 0.15625,1.046875 v 4.296875 h -1.1875 v -4.296875 q 0,-0.765625 -0.359375,-1.1875 -0.34375,-0.421875 -1.0625,-0.421875 -0.53125,0 -0.984375,0.25 -0.453125,0.25 -0.84375,0.6875 v 4.96875 z m 9.69165,-6.859375 q 0.4375,0 0.8125,0.09375 0.390625,0.09375 0.703125,0.28125 h 1.828125 v 0.4375 q 0,0.21875 -0.28125,0.28125 l -0.765625,0.109375 q 0.234375,0.4375 0.234375,0.96875 0,0.484375 -0.203125,0.890625 -0.1875,0.40625 -0.53125,0.703125 -0.328125,0.28125 -0.796875,0.4375 -0.453125,0.140625 -1,0.140625 -0.484375,0 -0.890625,-0.109375 -0.21875,0.125 -0.328125,0.28125 -0.109375,0.15625 -0.109375,0.296875 0,0.25 0.1875,0.375 0.203125,0.125 0.515625,0.171875 0.328125,0.04687 0.734375,0.0625 0.40625,0.01563 0.828125,0.04687 0.421875,0.03125 0.828125,0.109375 0.40625,0.0625 0.71875,0.234375 0.328125,0.171875 0.515625,0.46875 0.1875,0.28125 0.1875,0.75 0,0.4375 -0.21875,0.84375 -0.203125,0.40625 -0.609375,0.71875 -0.40625,0.3125 -1,0.5 -0.578125,0.203125 -1.328125,0.203125 -0.734375,0 -1.296875,-0.15625 -0.546875,-0.140625 -0.921875,-0.390625 -0.359375,-0.25 -0.546875,-0.578125 -0.1875,-0.3125 -0.1875,-0.671875 0,-0.5 0.3125,-0.84375 0.328125,-0.34375 0.875,-0.5625 -0.28125,-0.125 -0.453125,-0.34375 -0.171875,-0.234375 -0.171875,-0.609375 0,-0.140625 0.04687,-0.296875 0.0625,-0.15625 0.171875,-0.3125 0.109375,-0.15625 0.265625,-0.296875 0.171875,-0.140625 0.375,-0.234375 -0.5,-0.28125 -0.78125,-0.75 -0.28125,-0.46875 -0.28125,-1.078125 0,-0.5 0.1875,-0.890625 0.1875,-0.40625 0.53125,-0.6875 0.34375,-0.296875 0.8125,-0.4375 0.46875,-0.15625 1.03125,-0.15625 z m 2.09375,7.21875 q 0,-0.25 -0.140625,-0.390625 -0.125,-0.15625 -0.375,-0.234375 -0.234375,-0.09375 -0.546875,-0.125 -0.3125,-0.04687 -0.671875,-0.0625 -0.34375,-0.01563 -0.703125,-0.03125 -0.359375,-0.03125 -0.6875,-0.07813 -0.375,0.171875 -0.609375,0.4375 -0.234375,0.265625 -0.234375,0.625 0,0.21875 0.109375,0.40625 0.125,0.203125 0.359375,0.34375 0.234375,0.15625 0.59375,0.234375 0.375,0.07813 0.875,0.07813 0.46875,0 0.84375,-0.09375 0.390625,-0.07813 0.65625,-0.234375 0.265625,-0.15625 0.390625,-0.375 0.140625,-0.21875 0.140625,-0.5 z m -2.09375,-3.65625 q 0.359375,0 0.625,-0.09375 0.28125,-0.109375 0.46875,-0.28125 0.1875,-0.1875 0.28125,-0.4375 0.09375,-0.25 0.09375,-0.546875 0,-0.625 -0.375,-0.984375 -0.375,-0.375 -1.09375,-0.375 -0.71875,0 -1.09375,0.375 -0.375,0.359375 -0.375,0.984375 0,0.296875 0.09375,0.546875 0.09375,0.25 0.28125,0.4375 0.1875,0.171875 0.453125,0.28125 0.28125,0.09375 0.640625,0.09375 z"
       fill-rule="nonzero"
       id="path21"
       style="fill:#ffffff" />
    <path
       fill="#000000"
       d="m 21.537946,59.653524 v 1.078125 h -3.078125 v 8.46875 h -1.296875 v -8.46875 h -3.09375 v -1.078125 z m 2.447968,2.6875 q 0.609375,0 1.125,0.203125 0.515625,0.203125 0.890625,0.59375 0.375,0.375 0.578125,0.9375 0.203125,0.5625 0.203125,1.28125 0,0.28125 -0.0625,0.375 -0.04687,0.09375 -0.21875,0.09375 h -4.484375 q 0,0.640625 0.15625,1.125 0.171875,0.46875 0.453125,0.78125 0.28125,0.3125 0.65625,0.46875 0.390625,0.15625 0.875,0.15625 0.453125,0 0.765625,-0.09375 0.328125,-0.109375 0.5625,-0.21875 0.234375,-0.125 0.390625,-0.234375 0.15625,-0.109375 0.265625,-0.109375 0.140625,0 0.234375,0.125 l 0.328125,0.421875 q -0.21875,0.265625 -0.53125,0.46875 -0.296875,0.203125 -0.65625,0.328125 -0.34375,0.125 -0.71875,0.1875 -0.375,0.0625 -0.734375,0.0625 -0.703125,0 -1.296875,-0.234375 -0.59375,-0.234375 -1.03125,-0.6875 -0.421875,-0.46875 -0.65625,-1.140625 -0.234375,-0.671875 -0.234375,-1.546875 0,-0.703125 0.203125,-1.3125 0.21875,-0.609375 0.625,-1.0625 0.40625,-0.453125 0.984375,-0.703125 0.59375,-0.265625 1.328125,-0.265625 z m 0.03125,0.875 q -0.859375,0 -1.359375,0.5 -0.484375,0.5 -0.609375,1.375 h 3.671875 q 0,-0.421875 -0.109375,-0.765625 -0.109375,-0.34375 -0.328125,-0.59375 -0.21875,-0.25 -0.546875,-0.375 -0.3125,-0.140625 -0.71875,-0.140625 z m 9.249542,5.984375 h -0.53125 q -0.171875,0 -0.28125,-0.04687 -0.109375,-0.0625 -0.140625,-0.234375 l -0.140625,-0.625 q -0.265625,0.234375 -0.515625,0.4375 -0.25,0.1875 -0.53125,0.3125 -0.28125,0.125 -0.59375,0.1875 -0.3125,0.07813 -0.703125,0.07813 -0.390625,0 -0.734375,-0.109375 -0.34375,-0.109375 -0.609375,-0.328125 -0.25,-0.21875 -0.40625,-0.546875 -0.140625,-0.34375 -0.140625,-0.8125 0,-0.390625 0.21875,-0.765625 0.21875,-0.375 0.703125,-0.65625 0.5,-0.296875 1.296875,-0.46875 0.796875,-0.1875 1.9375,-0.21875 v -0.515625 q 0,-0.796875 -0.34375,-1.1875 -0.328125,-0.40625 -0.984375,-0.40625 -0.4375,0 -0.734375,0.109375 -0.296875,0.109375 -0.515625,0.25 -0.21875,0.125 -0.375,0.234375 -0.15625,0.109375 -0.3125,0.109375 -0.109375,0 -0.203125,-0.0625 -0.09375,-0.0625 -0.140625,-0.15625 l -0.21875,-0.375 q 0.5625,-0.546875 1.203125,-0.8125 0.65625,-0.265625 1.4375,-0.265625 0.5625,0 1,0.1875 0.453125,0.1875 0.75,0.53125 0.296875,0.328125 0.453125,0.796875 0.15625,0.46875 0.15625,1.046875 z m -3.078125,-0.71875 q 0.3125,0 0.5625,-0.0625 0.265625,-0.07813 0.484375,-0.1875 0.234375,-0.125 0.4375,-0.28125 0.21875,-0.171875 0.421875,-0.375 v -1.40625 q -0.828125,0.01563 -1.40625,0.125 -0.5625,0.09375 -0.921875,0.265625 -0.359375,0.171875 -0.53125,0.40625 -0.15625,0.21875 -0.15625,0.5 0,0.265625 0.07813,0.453125 0.09375,0.1875 0.234375,0.3125 0.15625,0.125 0.359375,0.1875 0.203125,0.0625 0.4375,0.0625 z m 4.866699,0.71875 v -6.75 h 0.703125 q 0.265625,0 0.328125,0.25 l 0.07813,0.6875 q 0.375,-0.453125 0.84375,-0.75 0.46875,-0.296875 1.078125,-0.296875 0.6875,0 1.109375,0.390625 0.421875,0.375 0.609375,1.015625 0.140625,-0.359375 0.359375,-0.625 0.234375,-0.265625 0.515625,-0.4375 0.296875,-0.1875 0.609375,-0.265625 0.328125,-0.07813 0.671875,-0.07813 0.53125,0 0.9375,0.171875 0.421875,0.171875 0.703125,0.5 0.296875,0.328125 0.453125,0.8125 0.15625,0.46875 0.15625,1.078125 v 4.296875 h -1.1875 v -4.296875 q 0,-0.796875 -0.34375,-1.203125 -0.34375,-0.40625 -1.015625,-0.40625 -0.28125,0 -0.546875,0.109375 -0.265625,0.09375 -0.46875,0.296875 -0.203125,0.203125 -0.328125,0.5 -0.109375,0.296875 -0.109375,0.703125 v 4.296875 h -1.1875 v -4.296875 q 0,-0.8125 -0.328125,-1.203125 -0.3125,-0.40625 -0.9375,-0.40625 -0.453125,0 -0.828125,0.234375 -0.375,0.234375 -0.6875,0.640625 v 5.03125 z"
       fill-rule="nonzero"
       id="path23"
       style="fill:#ffffff" />
    <path
       fill="#000000"
       fill-opacity="0"
       d="M 137.7846,2.518514 H 259.76885 V 54.235036 H 137.7846 Z"
       fill-rule="evenodd"
       id="path25"
       style="fill:#ffffff" />
    <path
       fill="#000000"
       d="m 149.4721,24.318494 h -1.28125 v -9.546875 h 1.28125 z m 2.37298,0 v -6.75 h 0.70313 q 0.26562,0 0.32812,0.25 l 0.0937,0.734375 q 0.4375,-0.484375 0.98438,-0.78125 0.54687,-0.3125 1.25,-0.3125 0.5625,0 0.98437,0.1875 0.42188,0.1875 0.70313,0.53125 0.28125,0.328125 0.42187,0.796875 0.15625,0.46875 0.15625,1.046875 v 4.296875 h -1.1875 v -4.296875 q 0,-0.765625 -0.35937,-1.1875 -0.34375,-0.421875 -1.0625,-0.421875 -0.53125,0 -0.98438,0.25 -0.45312,0.25 -0.84375,0.6875 v 4.96875 z m 7.67603,0 v -5.734375 l -0.73438,-0.09375 q -0.14062,-0.03125 -0.23437,-0.09375 -0.0937,-0.07813 -0.0937,-0.203125 v -0.5 h 1.0625 v -0.640625 q 0,-0.578125 0.15625,-1.03125 0.17187,-0.453125 0.46875,-0.765625 0.3125,-0.3125 0.73437,-0.46875 0.4375,-0.15625 0.96875,-0.15625 0.45313,0 0.82813,0.125 l -0.0156,0.59375 q -0.0156,0.140625 -0.125,0.171875 -0.0937,0.01563 -0.29687,0.01563 h -0.20313 q -0.3125,0 -0.5625,0.09375 -0.23437,0.07813 -0.42187,0.265625 -0.1875,0.171875 -0.28125,0.46875 -0.0937,0.28125 -0.0937,0.71875 v 0.609375 h 1.95312 v 0.875 h -1.90625 v 5.75 z m 4.22595,0 v -6.75 h 0.6875 q 0.1875,0 0.26562,0.07813 0.0781,0.0625 0.0937,0.25 l 0.0781,1.046875 q 0.35937,-0.703125 0.85937,-1.09375 0.51563,-0.40625 1.20313,-0.40625 0.28125,0 0.5,0.0625 0.23437,0.0625 0.42187,0.1875 l -0.15625,0.875 q -0.0469,0.171875 -0.20312,0.171875 -0.0937,0 -0.29688,-0.0625 -0.1875,-0.0625 -0.53125,-0.0625 -0.625,0 -1.04687,0.359375 -0.40625,0.359375 -0.6875,1.046875 v 4.296875 z m 10.08661,0 h -0.53125 q -0.17188,0 -0.28125,-0.04687 -0.10938,-0.0625 -0.14063,-0.234375 l -0.14062,-0.625 q -0.26563,0.234375 -0.51563,0.4375 -0.25,0.1875 -0.53125,0.3125 -0.28125,0.125 -0.59375,0.1875 -0.3125,0.07813 -0.70312,0.07813 -0.39063,0 -0.73438,-0.109375 -0.34375,-0.109375 -0.60937,-0.328125 -0.25,-0.21875 -0.40625,-0.546875 -0.14063,-0.34375 -0.14063,-0.8125 0,-0.390625 0.21875,-0.765625 0.21875,-0.375 0.70313,-0.65625 0.5,-0.296875 1.29687,-0.46875 0.79688,-0.1875 1.9375,-0.21875 v -0.515625 q 0,-0.796875 -0.34375,-1.1875 -0.32812,-0.40625 -0.98437,-0.40625 -0.4375,0 -0.73438,0.109375 -0.29687,0.109375 -0.51562,0.25 -0.21875,0.125 -0.375,0.234375 -0.15625,0.109375 -0.3125,0.109375 -0.10938,0 -0.20313,-0.0625 -0.0937,-0.0625 -0.14062,-0.15625 l -0.21875,-0.375 q 0.5625,-0.546875 1.20312,-0.8125 0.65625,-0.265625 1.4375,-0.265625 0.5625,0 1,0.1875 0.45313,0.1875 0.75,0.53125 0.29688,0.328125 0.45313,0.796875 0.15625,0.46875 0.15625,1.046875 z m -3.07813,-0.71875 q 0.3125,0 0.5625,-0.0625 0.26563,-0.07813 0.48438,-0.1875 0.23437,-0.125 0.4375,-0.28125 0.21875,-0.171875 0.42187,-0.375 v -1.40625 q -0.82812,0.01563 -1.40625,0.125 -0.5625,0.09375 -0.92187,0.265625 -0.35938,0.171875 -0.53125,0.40625 -0.15625,0.21875 -0.15625,0.5 0,0.265625 0.0781,0.453125 0.0937,0.1875 0.23438,0.3125 0.15625,0.125 0.35937,0.1875 0.20313,0.0625 0.4375,0.0625 z m 8.74176,-4.921875 q -0.0781,0.15625 -0.25,0.15625 -0.10937,0 -0.23437,-0.07813 -0.125,-0.07813 -0.3125,-0.15625 -0.17188,-0.09375 -0.4375,-0.171875 -0.25,-0.07813 -0.59375,-0.07813 -0.29688,0 -0.54688,0.07813 -0.23437,0.07813 -0.40625,0.21875 -0.15625,0.125 -0.25,0.296875 -0.0937,0.171875 -0.0937,0.390625 0,0.25 0.14063,0.421875 0.15625,0.171875 0.40625,0.3125 0.25,0.125 0.5625,0.21875 0.3125,0.09375 0.64062,0.203125 0.32813,0.109375 0.64063,0.25 0.3125,0.125 0.5625,0.328125 0.25,0.203125 0.39062,0.5 0.15625,0.28125 0.15625,0.6875 0,0.46875 -0.17187,0.859375 -0.15625,0.390625 -0.48438,0.6875 -0.32812,0.28125 -0.8125,0.453125 -0.46875,0.171875 -1.07812,0.171875 -0.71875,0 -1.29688,-0.234375 -0.5625,-0.234375 -0.96875,-0.59375 l 0.28125,-0.453125 q 0.0625,-0.07813 0.125,-0.125 0.0781,-0.04687 0.20313,-0.04687 0.125,0 0.25,0.09375 0.14062,0.09375 0.32812,0.203125 0.1875,0.109375 0.45313,0.203125 0.26562,0.09375 0.67187,0.09375 0.35938,0 0.60938,-0.07813 0.26562,-0.09375 0.4375,-0.25 0.17187,-0.15625 0.25,-0.34375 0.0937,-0.203125 0.0937,-0.4375 0,-0.28125 -0.15625,-0.453125 -0.14063,-0.1875 -0.39063,-0.3125 -0.25,-0.140625 -0.57812,-0.234375 -0.3125,-0.09375 -0.64063,-0.203125 -0.32812,-0.109375 -0.64062,-0.234375 -0.3125,-0.140625 -0.5625,-0.34375 -0.25,-0.21875 -0.40625,-0.515625 -0.14063,-0.3125 -0.14063,-0.734375 0,-0.390625 0.15625,-0.75 0.15625,-0.359375 0.46875,-0.625 0.3125,-0.265625 0.75,-0.421875 0.45313,-0.171875 1.01563,-0.171875 0.67187,0 1.20312,0.21875 0.53125,0.203125 0.92188,0.5625 z m 3.95624,5.75 q -0.79687,0 -1.23437,-0.4375 -0.42188,-0.453125 -0.42188,-1.296875 v -4.125 h -0.8125 q -0.10937,0 -0.1875,-0.0625 -0.0625,-0.07813 -0.0625,-0.203125 v -0.46875 l 1.10938,-0.140625 0.26562,-2.09375 q 0.0156,-0.09375 0.0781,-0.15625 0.0781,-0.0625 0.20312,-0.0625 h 0.59375 v 2.3125 h 1.9375 v 0.875 h -1.9375 v 4.046875 q 0,0.421875 0.20313,0.640625 0.20312,0.203125 0.53125,0.203125 0.1875,0 0.32812,-0.04687 0.14063,-0.0625 0.23438,-0.125 0.0937,-0.0625 0.15625,-0.109375 0.0781,-0.04687 0.14062,-0.04687 0.0937,0 0.17188,0.109375 l 0.34375,0.578125 q -0.3125,0.28125 -0.75,0.453125 -0.42188,0.15625 -0.89063,0.15625 z m 2.9245,-0.109375 v -6.75 h 0.6875 q 0.1875,0 0.26563,0.07813 0.0781,0.0625 0.0937,0.25 l 0.0781,1.046875 q 0.35938,-0.703125 0.85938,-1.09375 0.51562,-0.40625 1.20312,-0.40625 0.28125,0 0.5,0.0625 0.23438,0.0625 0.42188,0.1875 l -0.15625,0.875 q -0.0469,0.171875 -0.20313,0.171875 -0.0937,0 -0.29687,-0.0625 -0.1875,-0.0625 -0.53125,-0.0625 -0.625,0 -1.04688,0.359375 -0.40625,0.359375 -0.6875,1.046875 v 4.296875 z m 6.40247,-6.75 v 4.296875 q 0,0.78125 0.34375,1.203125 0.35937,0.40625 1.07812,0.40625 0.51563,0 0.96875,-0.234375 0.46875,-0.25 0.85938,-0.6875 v -4.984375 h 1.1875 v 6.75 h -0.71875 q -0.25,0 -0.3125,-0.25 l -0.0937,-0.71875 q -0.4375,0.484375 -0.98438,0.78125 -0.54687,0.296875 -1.25,0.296875 -0.5625,0 -0.98437,-0.1875 -0.42188,-0.1875 -0.71875,-0.515625 -0.28125,-0.328125 -0.42188,-0.796875 -0.14062,-0.484375 -0.14062,-1.0625 v -4.296875 z m 10.98852,1.203125 q -0.0469,0.0625 -0.10937,0.109375 -0.0469,0.04687 -0.15625,0.04687 -0.0937,0 -0.21875,-0.07813 -0.10938,-0.09375 -0.29688,-0.1875 -0.17187,-0.109375 -0.4375,-0.1875 -0.25,-0.09375 -0.625,-0.09375 -0.48437,0 -0.875,0.1875 -0.375,0.171875 -0.64062,0.515625 -0.25,0.328125 -0.375,0.796875 -0.125,0.46875 -0.125,1.0625 0,0.609375 0.14062,1.09375 0.14063,0.46875 0.39063,0.796875 0.25,0.3125 0.60937,0.484375 0.35938,0.171875 0.8125,0.171875 0.4375,0 0.71875,-0.09375 0.28125,-0.109375 0.46875,-0.234375 0.1875,-0.125 0.29688,-0.234375 0.125,-0.109375 0.25,-0.109375 0.15625,0 0.21875,0.125 l 0.34375,0.421875 q -0.4375,0.546875 -1.10938,0.796875 -0.65625,0.25 -1.39062,0.25 -0.625,0 -1.17188,-0.234375 -0.54687,-0.234375 -0.95312,-0.671875 -0.39063,-0.453125 -0.625,-1.09375 -0.21875,-0.640625 -0.21875,-1.46875 0,-0.75 0.20312,-1.390625 0.20313,-0.640625 0.60938,-1.109375 0.40625,-0.46875 1,-0.71875 0.59375,-0.265625 1.35937,-0.265625 0.70313,0 1.25,0.234375 0.54688,0.234375 0.96875,0.640625 z m 3.66175,5.65625 q -0.79688,0 -1.23438,-0.4375 -0.42187,-0.453125 -0.42187,-1.296875 v -4.125 h -0.8125 q -0.10938,0 -0.1875,-0.0625 -0.0625,-0.07813 -0.0625,-0.203125 v -0.46875 l 1.10937,-0.140625 0.26563,-2.09375 q 0.0156,-0.09375 0.0781,-0.15625 0.0781,-0.0625 0.20313,-0.0625 h 0.59375 v 2.3125 h 1.9375 v 0.875 h -1.9375 v 4.046875 q 0,0.421875 0.20312,0.640625 0.20313,0.203125 0.53125,0.203125 0.1875,0 0.32813,-0.04687 0.14062,-0.0625 0.23437,-0.125 0.0937,-0.0625 0.15625,-0.109375 0.0781,-0.04687 0.14063,-0.04687 0.0937,0 0.17187,0.109375 l 0.34375,0.578125 q -0.3125,0.28125 -0.75,0.453125 -0.42187,0.15625 -0.89062,0.15625 z m 3.95574,-6.859375 v 4.296875 q 0,0.78125 0.34375,1.203125 0.35938,0.40625 1.07813,0.40625 0.51562,0 0.96875,-0.234375 0.46875,-0.25 0.85937,-0.6875 v -4.984375 h 1.1875 v 6.75 h -0.71875 q -0.25,0 -0.3125,-0.25 l -0.0937,-0.71875 q -0.4375,0.484375 -0.98437,0.78125 -0.54688,0.296875 -1.25,0.296875 -0.5625,0 -0.98438,-0.1875 -0.42187,-0.1875 -0.71875,-0.515625 -0.28125,-0.328125 -0.42187,-0.796875 -0.14063,-0.484375 -0.14063,-1.0625 v -4.296875 z m 6.37915,6.75 v -6.75 h 0.6875 q 0.1875,0 0.26563,0.07813 0.0781,0.0625 0.0937,0.25 l 0.0781,1.046875 q 0.35938,-0.703125 0.85938,-1.09375 0.51562,-0.40625 1.20312,-0.40625 0.28125,0 0.5,0.0625 0.23438,0.0625 0.42188,0.1875 l -0.15625,0.875 q -0.0469,0.171875 -0.20313,0.171875 -0.0937,0 -0.29687,-0.0625 -0.1875,-0.0625 -0.53125,-0.0625 -0.625,0 -1.04688,0.359375 -0.40625,0.359375 -0.6875,1.046875 v 4.296875 z m 8.0431,-6.859375 q 0.60937,0 1.125,0.203125 0.51562,0.203125 0.89062,0.59375 0.375,0.375 0.57813,0.9375 0.20312,0.5625 0.20312,1.28125 0,0.28125 -0.0625,0.375 -0.0469,0.09375 -0.21875,0.09375 h -4.48437 q 0,0.640625 0.15625,1.125 0.17187,0.46875 0.45312,0.78125 0.28125,0.3125 0.65625,0.46875 0.39063,0.15625 0.875,0.15625 0.45313,0 0.76563,-0.09375 0.32812,-0.109375 0.5625,-0.21875 0.23437,-0.125 0.39062,-0.234375 0.15625,-0.109375 0.26563,-0.109375 0.14062,0 0.23437,0.125 l 0.32813,0.421875 q -0.21875,0.265625 -0.53125,0.46875 -0.29688,0.203125 -0.65625,0.328125 -0.34375,0.125 -0.71875,0.1875 -0.375,0.0625 -0.73438,0.0625 -0.70312,0 -1.29687,-0.234375 -0.59375,-0.234375 -1.03125,-0.6875 -0.42188,-0.46875 -0.65625,-1.140625 -0.23438,-0.671875 -0.23438,-1.546875 0,-0.703125 0.20313,-1.3125 0.21875,-0.609375 0.625,-1.0625 0.40625,-0.453125 0.98437,-0.703125 0.59375,-0.265625 1.32813,-0.265625 z m 0.0312,0.875 q -0.85938,0 -1.35938,0.5 -0.48437,0.5 -0.60937,1.375 h 3.67187 q 0,-0.421875 -0.10937,-0.765625 -0.10938,-0.34375 -0.32813,-0.59375 -0.21875,-0.25 -0.54687,-0.375 -0.3125,-0.140625 -0.71875,-0.140625 z"
       fill-rule="nonzero"
       id="path27"
       style="fill:#ffffff" />
    <path
       fill="#000000"
       d="m 154.44085,30.771624 v 1.078125 h -3.07813 v 8.46875 h -1.29687 v -8.46875 h -3.09375 v -1.078125 z m 2.44793,2.6875 q 0.60938,0 1.125,0.203125 0.51563,0.203125 0.89063,0.59375 0.375,0.375 0.57812,0.9375 0.20313,0.5625 0.20313,1.28125 0,0.28125 -0.0625,0.375 -0.0469,0.09375 -0.21875,0.09375 h -4.48438 q 0,0.640625 0.15625,1.125 0.17188,0.46875 0.45313,0.78125 0.28125,0.3125 0.65625,0.46875 0.39062,0.15625 0.875,0.15625 0.45312,0 0.76562,-0.09375 0.32813,-0.109375 0.5625,-0.21875 0.23438,-0.125 0.39063,-0.234375 0.15625,-0.109375 0.26562,-0.109375 0.14063,0 0.23438,0.125 l 0.32812,0.421875 q -0.21875,0.265625 -0.53125,0.46875 -0.29687,0.203125 -0.65625,0.328125 -0.34375,0.125 -0.71875,0.1875 -0.375,0.0625 -0.73437,0.0625 -0.70313,0 -1.29688,-0.234375 -0.59375,-0.234375 -1.03125,-0.6875 -0.42187,-0.46875 -0.65625,-1.140625 -0.23437,-0.671875 -0.23437,-1.546875 0,-0.703125 0.20312,-1.3125 0.21875,-0.609375 0.625,-1.0625 0.40625,-0.453125 0.98438,-0.703125 0.59375,-0.265625 1.32812,-0.265625 z m 0.0312,0.875 q -0.85937,0 -1.35937,0.5 -0.48438,0.5 -0.60938,1.375 h 3.67188 q 0,-0.421875 -0.10938,-0.765625 -0.10937,-0.34375 -0.32812,-0.59375 -0.21875,-0.25 -0.54688,-0.375 -0.3125,-0.140625 -0.71875,-0.140625 z m 9.24958,5.984375 h -0.53125 q -0.17188,0 -0.28125,-0.04687 -0.10938,-0.0625 -0.14063,-0.234375 l -0.14062,-0.625 q -0.26563,0.234375 -0.51563,0.4375 -0.25,0.1875 -0.53125,0.3125 -0.28125,0.125 -0.59375,0.1875 -0.3125,0.07813 -0.70312,0.07813 -0.39063,0 -0.73438,-0.109375 -0.34375,-0.109375 -0.60937,-0.328125 -0.25,-0.21875 -0.40625,-0.546875 -0.14063,-0.34375 -0.14063,-0.8125 0,-0.390625 0.21875,-0.765625 0.21875,-0.375 0.70313,-0.65625 0.5,-0.296875 1.29687,-0.46875 0.79688,-0.1875 1.9375,-0.21875 v -0.515625 q 0,-0.796875 -0.34375,-1.1875 -0.32812,-0.40625 -0.98437,-0.40625 -0.4375,0 -0.73438,0.109375 -0.29687,0.109375 -0.51562,0.25 -0.21875,0.125 -0.375,0.234375 -0.15625,0.109375 -0.3125,0.109375 -0.10938,0 -0.20313,-0.0625 -0.0937,-0.0625 -0.14062,-0.15625 l -0.21875,-0.375 q 0.5625,-0.546875 1.20312,-0.8125 0.65625,-0.265625 1.4375,-0.265625 0.5625,0 1,0.1875 0.45313,0.1875 0.75,0.53125 0.29688,0.328125 0.45313,0.796875 0.15625,0.46875 0.15625,1.046875 z m -3.07813,-0.71875 q 0.3125,0 0.5625,-0.0625 0.26563,-0.07813 0.48438,-0.1875 0.23437,-0.125 0.4375,-0.28125 0.21875,-0.171875 0.42187,-0.375 v -1.40625 q -0.82812,0.01563 -1.40625,0.125 -0.5625,0.09375 -0.92187,0.265625 -0.35938,0.171875 -0.53125,0.40625 -0.15625,0.21875 -0.15625,0.5 0,0.265625 0.0781,0.453125 0.0937,0.1875 0.23438,0.3125 0.15625,0.125 0.35937,0.1875 0.20313,0.0625 0.4375,0.0625 z m 4.8667,0.71875 v -6.75 h 0.70313 q 0.26562,0 0.32812,0.25 l 0.0781,0.6875 q 0.375,-0.453125 0.84375,-0.75 0.46875,-0.296875 1.07812,-0.296875 0.6875,0 1.10938,0.390625 0.42187,0.375 0.60937,1.015625 0.14063,-0.359375 0.35938,-0.625 0.23437,-0.265625 0.51562,-0.4375 0.29688,-0.1875 0.60938,-0.265625 0.32812,-0.07813 0.67187,-0.07813 0.53125,0 0.9375,0.171875 0.42188,0.171875 0.70313,0.5 0.29687,0.328125 0.45312,0.8125 0.15625,0.46875 0.15625,1.078125 v 4.296875 h -1.1875 v -4.296875 q 0,-0.796875 -0.34375,-1.203125 -0.34375,-0.40625 -1.01562,-0.40625 -0.28125,0 -0.54688,0.109375 -0.26562,0.09375 -0.46875,0.296875 -0.20312,0.203125 -0.32812,0.5 -0.10938,0.296875 -0.10938,0.703125 v 4.296875 h -1.1875 v -4.296875 q 0,-0.8125 -0.32812,-1.203125 -0.3125,-0.40625 -0.9375,-0.40625 -0.45313,0 -0.82813,0.234375 -0.375,0.234375 -0.6875,0.640625 v 5.03125 z"
       fill-rule="nonzero"
       id="path29"
       style="fill:#ffffff" />
    <path
       fill="#000000"
       fill-opacity="0"
       d="M 140.00506,90.137924 H 261.98931 V 141.85445 H 140.00506 Z"
       fill-rule="evenodd"
       id="path31"
       style="fill:#ffffff" />
    <path
       fill="#000000"
       d="m 158.44256,107.17229 q 0,1.0625 -0.34375,1.95313 -0.34375,0.875 -0.96875,1.5 -0.60938,0.625 -1.48438,0.96875 -0.85937,0.34375 -1.90625,0.34375 h -3.57812 v -9.54688 h 3.57812 q 1.04688,0 1.90625,0.34375 0.875,0.34375 1.48438,0.96875 0.625,0.625 0.96875,1.51563 0.34375,0.875 0.34375,1.95312 z m -1.32813,0 q 0,-0.89062 -0.25,-1.57812 -0.23437,-0.6875 -0.67187,-1.17188 -0.4375,-0.48437 -1.0625,-0.73437 -0.625,-0.25 -1.39063,-0.25 h -2.28125 v 7.45312 h 2.28125 q 0.76563,0 1.39063,-0.25 0.625,-0.25 1.0625,-0.71875 0.4375,-0.48437 0.67187,-1.17187 0.25,-0.70313 0.25,-1.57813 z m 5.56732,-2.09375 q 0.60938,0 1.125,0.20313 0.51563,0.20312 0.89063,0.59375 0.375,0.375 0.57812,0.9375 0.20313,0.5625 0.20313,1.28125 0,0.28125 -0.0625,0.375 -0.0469,0.0937 -0.21875,0.0937 H 160.713 q 0,0.64062 0.15625,1.125 0.17188,0.46875 0.45313,0.78125 0.28125,0.3125 0.65625,0.46875 0.39062,0.15625 0.875,0.15625 0.45312,0 0.76562,-0.0937 0.32813,-0.10938 0.5625,-0.21875 0.23438,-0.125 0.39063,-0.23438 0.15625,-0.10937 0.26562,-0.10937 0.14063,0 0.23438,0.125 l 0.32812,0.42187 q -0.21875,0.26563 -0.53125,0.46875 -0.29687,0.20313 -0.65625,0.32813 -0.34375,0.125 -0.71875,0.1875 -0.375,0.0625 -0.73437,0.0625 -0.70313,0 -1.29688,-0.23438 -0.59375,-0.23437 -1.03125,-0.6875 -0.42187,-0.46875 -0.65625,-1.14062 -0.23437,-0.67188 -0.23437,-1.54688 0,-0.70312 0.20312,-1.3125 0.21875,-0.60937 0.625,-1.0625 0.40625,-0.45312 0.98438,-0.70312 0.59375,-0.26563 1.32812,-0.26563 z m 0.0312,0.875 q -0.85937,0 -1.35937,0.5 -0.48438,0.5 -0.60938,1.375 h 3.67188 q 0,-0.42187 -0.10938,-0.76562 -0.10937,-0.34375 -0.32812,-0.59375 -0.21875,-0.25 -0.54688,-0.375 -0.3125,-0.14063 -0.71875,-0.14063 z m 3.26368,-0.76562 h 0.96875 q 0.14062,0 0.23437,0.0781 0.0937,0.0625 0.125,0.17188 l 1.71875,4.34375 q 0.0937,0.23437 0.14063,0.48437 0.0625,0.23438 0.10937,0.46875 0.0469,-0.23437 0.10938,-0.46875 0.0625,-0.25 0.15625,-0.48437 l 1.73437,-4.34375 q 0.0312,-0.10938 0.125,-0.17188 0.0937,-0.0781 0.21875,-0.0781 h 0.9375 l -2.76562,6.75 h -1.0625 z m 10.16626,-0.10938 q 0.60937,0 1.125,0.20313 0.51562,0.20312 0.89062,0.59375 0.375,0.375 0.57813,0.9375 0.20312,0.5625 0.20312,1.28125 0,0.28125 -0.0625,0.375 -0.0469,0.0937 -0.21875,0.0937 h -4.48437 q 0,0.64062 0.15625,1.125 0.17187,0.46875 0.45312,0.78125 0.28125,0.3125 0.65625,0.46875 0.39063,0.15625 0.875,0.15625 0.45313,0 0.76563,-0.0937 0.32812,-0.10938 0.5625,-0.21875 0.23437,-0.125 0.39062,-0.23438 0.15625,-0.10937 0.26563,-0.10937 0.14062,0 0.23437,0.125 l 0.32813,0.42187 q -0.21875,0.26563 -0.53125,0.46875 -0.29688,0.20313 -0.65625,0.32813 -0.34375,0.125 -0.71875,0.1875 -0.375,0.0625 -0.73438,0.0625 -0.70312,0 -1.29687,-0.23438 -0.59375,-0.23437 -1.03125,-0.6875 -0.42188,-0.46875 -0.65625,-1.14062 -0.23438,-0.67188 -0.23438,-1.54688 0,-0.70312 0.20313,-1.3125 0.21875,-0.60937 0.625,-1.0625 0.40625,-0.45312 0.98437,-0.70312 0.59375,-0.26563 1.32813,-0.26563 z m 0.0312,0.875 q -0.85938,0 -1.35938,0.5 -0.48437,0.5 -0.60937,1.375 h 3.67187 q 0,-0.42187 -0.10937,-0.76562 -0.10938,-0.34375 -0.32813,-0.59375 -0.21875,-0.25 -0.54687,-0.375 -0.3125,-0.14063 -0.71875,-0.14063 z m 5.60894,-3.82812 v 9.8125 h -1.1875 v -9.8125 z m 4.81824,2.95312 q 0.73438,0 1.32813,0.25 0.60937,0.25 1.01562,0.70313 0.42188,0.45312 0.64063,1.09375 0.23437,0.64062 0.23437,1.4375 0,0.79687 -0.23437,1.4375 -0.21875,0.64062 -0.64063,1.09375 -0.40625,0.45312 -1.01562,0.70312 -0.59375,0.23438 -1.32813,0.23438 -0.73437,0 -1.34375,-0.23438 -0.59375,-0.25 -1.01562,-0.70312 -0.40625,-0.45313 -0.64063,-1.09375 -0.21875,-0.64063 -0.21875,-1.4375 0,-0.79688 0.21875,-1.4375 0.23438,-0.64063 0.64063,-1.09375 0.42187,-0.45313 1.01562,-0.70313 0.60938,-0.25 1.34375,-0.25 z m 0,6.03125 q 1,0 1.48438,-0.67187 0.5,-0.67188 0.5,-1.875 0,-1.20313 -0.5,-1.875 -0.48438,-0.67188 -1.48438,-0.67188 -0.5,0 -0.875,0.17188 -0.375,0.17187 -0.625,0.5 -0.25,0.32812 -0.375,0.8125 -0.125,0.46875 -0.125,1.0625 0,0.60937 0.125,1.07812 0.125,0.46875 0.375,0.79688 0.25,0.32812 0.625,0.5 0.375,0.17187 0.875,0.17187 z m 4.67603,3.10938 v -9.03125 h 0.70312 q 0.26563,0 0.32813,0.25 l 0.0937,0.79687 q 0.4375,-0.53125 0.98437,-0.84375 0.5625,-0.32812 1.29688,-0.32812 0.57812,0 1.04687,0.23437 0.46875,0.21875 0.79688,0.65625 0.34375,0.4375 0.51562,1.07813 0.1875,0.64062 0.1875,1.48437 0,0.75 -0.20312,1.39063 -0.1875,0.64062 -0.5625,1.10937 -0.375,0.46875 -0.92188,0.75 -0.54687,0.26563 -1.21875,0.26563 -0.625,0 -1.07812,-0.20313 -0.4375,-0.20312 -0.78125,-0.59375 v 2.98438 z m 3.01562,-8.1875 q -0.57812,0 -1.01562,0.26562 -0.4375,0.26563 -0.8125,0.75 v 3.26563 q 0.32812,0.4375 0.71875,0.625 0.39062,0.17187 0.875,0.17187 0.9375,0 1.4375,-0.67187 0.51562,-0.67188 0.51562,-1.92188 0,-0.65625 -0.125,-1.125 -0.10937,-0.48437 -0.32812,-0.78125 -0.21875,-0.29687 -0.54688,-0.4375 -0.3125,-0.14062 -0.71875,-0.14062 z m 4.34149,5.90625 v -6.75 h 0.70313 q 0.26562,0 0.32812,0.25 l 0.0781,0.6875 q 0.375,-0.45313 0.84375,-0.75 0.46875,-0.29688 1.07812,-0.29688 0.6875,0 1.10938,0.39063 0.42187,0.375 0.60937,1.01562 0.14063,-0.35937 0.35938,-0.625 0.23437,-0.26562 0.51562,-0.4375 0.29688,-0.1875 0.60938,-0.26562 0.32812,-0.0781 0.67187,-0.0781 0.53125,0 0.9375,0.17188 0.42188,0.17187 0.70313,0.5 0.29687,0.32812 0.45312,0.8125 0.15625,0.46875 0.15625,1.07812 v 4.29688 h -1.1875 v -4.29688 q 0,-0.79687 -0.34375,-1.20312 -0.34375,-0.40625 -1.01562,-0.40625 -0.28125,0 -0.54688,0.10937 -0.26562,0.0937 -0.46875,0.29688 -0.20312,0.20312 -0.32812,0.5 -0.10938,0.29687 -0.10938,0.70312 v 4.29688 h -1.1875 v -4.29688 q 0,-0.8125 -0.32812,-1.20312 -0.3125,-0.40625 -0.9375,-0.40625 -0.45313,0 -0.82813,0.23437 -0.375,0.23438 -0.6875,0.64063 v 5.03125 z m 13.6142,-6.85938 q 0.60937,0 1.125,0.20313 0.51562,0.20312 0.89062,0.59375 0.375,0.375 0.57813,0.9375 0.20312,0.5625 0.20312,1.28125 0,0.28125 -0.0625,0.375 -0.0469,0.0937 -0.21875,0.0937 h -4.48437 q 0,0.64062 0.15625,1.125 0.17187,0.46875 0.45312,0.78125 0.28125,0.3125 0.65625,0.46875 0.39063,0.15625 0.875,0.15625 0.45313,0 0.76563,-0.0937 0.32812,-0.10938 0.5625,-0.21875 0.23437,-0.125 0.39062,-0.23438 0.15625,-0.10937 0.26563,-0.10937 0.14062,0 0.23437,0.125 l 0.32813,0.42187 q -0.21875,0.26563 -0.53125,0.46875 -0.29688,0.20313 -0.65625,0.32813 -0.34375,0.125 -0.71875,0.1875 -0.375,0.0625 -0.73438,0.0625 -0.70312,0 -1.29687,-0.23438 -0.59375,-0.23437 -1.03125,-0.6875 -0.42188,-0.46875 -0.65625,-1.14062 -0.23438,-0.67188 -0.23438,-1.54688 0,-0.70312 0.20313,-1.3125 0.21875,-0.60937 0.625,-1.0625 0.40625,-0.45312 0.98437,-0.70312 0.59375,-0.26563 1.32813,-0.26563 z m 0.0312,0.875 q -0.85938,0 -1.35938,0.5 -0.48437,0.5 -0.60937,1.375 h 3.67187 q 0,-0.42187 -0.10937,-0.76562 -0.10938,-0.34375 -0.32813,-0.59375 -0.21875,-0.25 -0.54687,-0.375 -0.3125,-0.14063 -0.71875,-0.14063 z m 4.28082,5.98438 v -6.75 h 0.70313 q 0.26562,0 0.32812,0.25 l 0.0937,0.73437 q 0.4375,-0.48437 0.98438,-0.78125 0.54687,-0.3125 1.25,-0.3125 0.5625,0 0.98437,0.1875 0.42188,0.1875 0.70313,0.53125 0.28125,0.32813 0.42187,0.79688 0.15625,0.46875 0.15625,1.04687 v 4.29688 h -1.1875 v -4.29688 q 0,-0.76562 -0.35937,-1.1875 -0.34375,-0.42187 -1.0625,-0.42187 -0.53125,0 -0.98438,0.25 -0.45312,0.25 -0.84375,0.6875 v 4.96875 z m 9.45728,0.10937 q -0.79688,0 -1.23438,-0.4375 -0.42187,-0.45312 -0.42187,-1.29687 v -4.125 h -0.8125 q -0.10938,0 -0.1875,-0.0625 -0.0625,-0.0781 -0.0625,-0.20313 v -0.46875 l 1.10937,-0.14062 0.26563,-2.09375 q 0.0156,-0.0937 0.0781,-0.15625 0.0781,-0.0625 0.20313,-0.0625 h 0.59375 v 2.3125 h 1.9375 v 0.875 h -1.9375 v 4.04687 q 0,0.42188 0.20312,0.64063 0.20313,0.20312 0.53125,0.20312 0.1875,0 0.32813,-0.0469 0.14062,-0.0625 0.23437,-0.125 0.0937,-0.0625 0.15625,-0.10938 0.0781,-0.0469 0.14063,-0.0469 0.0937,0 0.17187,0.10937 l 0.34375,0.57813 q -0.3125,0.28125 -0.75,0.45312 -0.42187,0.15625 -0.89062,0.15625 z"
       fill-rule="nonzero"
       id="path33"
       style="fill:#ffffff" />
    <path
       fill="#000000"
       d="m 156.6613,118.39104 v 1.07813 h -3.07813 v 8.46875 h -1.29687 v -8.46875 h -3.09375 v -1.07813 z m 2.44793,2.6875 q 0.60938,0 1.125,0.20313 0.51563,0.20312 0.89063,0.59375 0.375,0.375 0.57812,0.9375 0.20313,0.5625 0.20313,1.28125 0,0.28125 -0.0625,0.375 -0.0469,0.0937 -0.21875,0.0937 h -4.48438 q 0,0.64062 0.15625,1.125 0.17188,0.46875 0.45313,0.78125 0.28125,0.3125 0.65625,0.46875 0.39062,0.15625 0.875,0.15625 0.45312,0 0.76562,-0.0937 0.32813,-0.10938 0.5625,-0.21875 0.23438,-0.125 0.39063,-0.23438 0.15625,-0.10937 0.26562,-0.10937 0.14063,0 0.23438,0.125 l 0.32812,0.42187 q -0.21875,0.26563 -0.53125,0.46875 -0.29687,0.20313 -0.65625,0.32813 -0.34375,0.125 -0.71875,0.1875 -0.375,0.0625 -0.73437,0.0625 -0.70313,0 -1.29688,-0.23438 -0.59375,-0.23437 -1.03125,-0.6875 -0.42187,-0.46875 -0.65625,-1.14062 -0.23437,-0.67188 -0.23437,-1.54688 0,-0.70312 0.20312,-1.3125 0.21875,-0.60937 0.625,-1.0625 0.40625,-0.45312 0.98438,-0.70312 0.59375,-0.26563 1.32812,-0.26563 z m 0.0312,0.875 q -0.85937,0 -1.35937,0.5 -0.48438,0.5 -0.60938,1.375 h 3.67188 q 0,-0.42187 -0.10938,-0.76562 -0.10937,-0.34375 -0.32812,-0.59375 -0.21875,-0.25 -0.54688,-0.375 -0.3125,-0.14063 -0.71875,-0.14063 z m 9.24958,5.98438 h -0.53125 q -0.17188,0 -0.28125,-0.0469 -0.10938,-0.0625 -0.14063,-0.23437 l -0.14062,-0.625 q -0.26563,0.23437 -0.51563,0.4375 -0.25,0.1875 -0.53125,0.3125 -0.28125,0.125 -0.59375,0.1875 -0.3125,0.0781 -0.70312,0.0781 -0.39063,0 -0.73438,-0.10937 -0.34375,-0.10938 -0.60937,-0.32813 -0.25,-0.21875 -0.40625,-0.54687 -0.14063,-0.34375 -0.14063,-0.8125 0,-0.39063 0.21875,-0.76563 0.21875,-0.375 0.70313,-0.65625 0.5,-0.29687 1.29687,-0.46875 0.79688,-0.1875 1.9375,-0.21875 v -0.51562 q 0,-0.79688 -0.34375,-1.1875 -0.32812,-0.40625 -0.98437,-0.40625 -0.4375,0 -0.73438,0.10937 -0.29687,0.10938 -0.51562,0.25 -0.21875,0.125 -0.375,0.23438 -0.15625,0.10937 -0.3125,0.10937 -0.10938,0 -0.20313,-0.0625 -0.0937,-0.0625 -0.14062,-0.15625 l -0.21875,-0.375 q 0.5625,-0.54687 1.20312,-0.8125 0.65625,-0.26562 1.4375,-0.26562 0.5625,0 1,0.1875 0.45313,0.1875 0.75,0.53125 0.29688,0.32812 0.45313,0.79687 0.15625,0.46875 0.15625,1.04688 z m -3.07813,-0.71875 q 0.3125,0 0.5625,-0.0625 0.26563,-0.0781 0.48438,-0.1875 0.23437,-0.125 0.4375,-0.28125 0.21875,-0.17188 0.42187,-0.375 v -1.40625 q -0.82812,0.0156 -1.40625,0.125 -0.5625,0.0937 -0.92187,0.26562 -0.35938,0.17188 -0.53125,0.40625 -0.15625,0.21875 -0.15625,0.5 0,0.26563 0.0781,0.45313 0.0937,0.1875 0.23438,0.3125 0.15625,0.125 0.35937,0.1875 0.20313,0.0625 0.4375,0.0625 z m 4.8667,0.71875 v -6.75 h 0.70313 q 0.26562,0 0.32812,0.25 l 0.0781,0.6875 q 0.375,-0.45313 0.84375,-0.75 0.46875,-0.29688 1.07812,-0.29688 0.6875,0 1.10938,0.39063 0.42187,0.375 0.60937,1.01562 0.14063,-0.35937 0.35938,-0.625 0.23437,-0.26562 0.51562,-0.4375 0.29688,-0.1875 0.60938,-0.26562 0.32812,-0.0781 0.67187,-0.0781 0.53125,0 0.9375,0.17188 0.42188,0.17187 0.70313,0.5 0.29687,0.32812 0.45312,0.8125 0.15625,0.46875 0.15625,1.07812 v 4.29688 h -1.1875 v -4.29688 q 0,-0.79687 -0.34375,-1.20312 -0.34375,-0.40625 -1.01562,-0.40625 -0.28125,0 -0.54688,0.10937 -0.26562,0.0937 -0.46875,0.29688 -0.20312,0.20312 -0.32812,0.5 -0.10938,0.29687 -0.10938,0.70312 v 4.29688 h -1.1875 v -4.29688 q 0,-0.8125 -0.32812,-1.20312 -0.3125,-0.40625 -0.9375,-0.40625 -0.45313,0 -0.82813,0.23437 -0.375,0.23438 -0.6875,0.64063 v 5.03125 z m 14.81738,-5.64063 q -0.0781,0.15625 -0.25,0.15625 -0.10937,0 -0.23437,-0.0781 -0.125,-0.0781 -0.3125,-0.15625 -0.17188,-0.0937 -0.4375,-0.17188 -0.25,-0.0781 -0.59375,-0.0781 -0.29688,0 -0.54688,0.0781 -0.23437,0.0781 -0.40625,0.21875 -0.15625,0.125 -0.25,0.29688 -0.0937,0.17187 -0.0937,0.39062 0,0.25 0.14063,0.42188 0.15625,0.17187 0.40625,0.3125 0.25,0.125 0.5625,0.21875 0.3125,0.0937 0.64062,0.20312 0.32813,0.10938 0.64063,0.25 0.3125,0.125 0.5625,0.32813 0.25,0.20312 0.39062,0.5 0.15625,0.28125 0.15625,0.6875 0,0.46875 -0.17187,0.85937 -0.15625,0.39063 -0.48438,0.6875 -0.32812,0.28125 -0.8125,0.45313 -0.46875,0.17187 -1.07812,0.17187 -0.71875,0 -1.29688,-0.23437 -0.5625,-0.23438 -0.96875,-0.59375 l 0.28125,-0.45313 q 0.0625,-0.0781 0.125,-0.125 0.0781,-0.0469 0.20313,-0.0469 0.125,0 0.25,0.0937 0.14062,0.0937 0.32812,0.20312 0.1875,0.10938 0.45313,0.20313 0.26562,0.0937 0.67187,0.0937 0.35938,0 0.60938,-0.0781 0.26562,-0.0937 0.4375,-0.25 0.17187,-0.15625 0.25,-0.34375 0.0937,-0.20312 0.0937,-0.4375 0,-0.28125 -0.15625,-0.45312 -0.14063,-0.1875 -0.39063,-0.3125 -0.25,-0.14063 -0.57812,-0.23438 -0.3125,-0.0937 -0.64063,-0.20312 -0.32812,-0.10938 -0.64062,-0.23438 -0.3125,-0.14062 -0.5625,-0.34375 -0.25,-0.21875 -0.40625,-0.51562 -0.14063,-0.3125 -0.14063,-0.73438 0,-0.39062 0.15625,-0.75 0.15625,-0.35937 0.46875,-0.625 0.3125,-0.26562 0.75,-0.42187 0.45313,-0.17188 1.01563,-0.17188 0.67187,0 1.20312,0.21875 0.53125,0.20313 0.92188,0.5625 z"
       fill-rule="nonzero"
       id="path35"
       style="fill:#ffffff" />
  </g>
</svg>
